<svg width="41" height="41" viewBox="0 0 41 41" fill="none" xmlns="http://www.w3.org/2000/svg">
<path d="M40.3333 20.5001C40.3333 25.7602 38.2437 30.8049 34.5242 34.5244C30.8048 38.2438 25.7601 40.3334 20.5 40.3334C15.2398 40.3334 10.1951 38.2438 6.47567 34.5244C2.7562 30.8049 0.666626 25.7602 0.666626 20.5001C0.666626 15.24 2.7562 10.1953 6.47567 6.4758C10.1951 2.75633 15.2398 0.666748 20.5 0.666748C25.7601 0.666748 30.8048 2.75633 34.5242 6.4758C38.2437 10.1953 40.3333 15.24 40.3333 20.5001ZM17.5002 13.2931C17.3148 13.1612 17.0967 13.0828 16.8698 13.0665C16.6428 13.0503 16.4158 13.0968 16.2135 13.201C16.0112 13.3052 15.8415 13.4631 15.723 13.6573C15.6045 13.8515 15.5418 14.0746 15.5416 14.3022V26.698C15.5418 26.9255 15.6045 27.1486 15.723 27.3429C15.8415 27.5371 16.0112 27.695 16.2135 27.7992C16.4158 27.9034 16.6428 27.9499 16.8698 27.9336C17.0967 27.9174 17.3148 27.839 17.5002 27.707L26.1773 21.5091C26.3379 21.3944 26.4689 21.2431 26.5593 21.0675C26.6497 20.892 26.6968 20.6975 26.6968 20.5001C26.6968 20.3027 26.6497 20.1081 26.5593 19.9326C26.4689 19.7571 26.3379 19.6057 26.1773 19.4911L17.5002 13.2931Z" fill="url(#paint0_linear_1_2900)"/>
<defs>
<linearGradient id="paint0_linear_1_2900" x1="-0.482023" y1="24.4667" x2="33.9533" y2="48.266" gradientUnits="userSpaceOnUse">
<stop stop-color="#E025CE"/>
<stop offset="1" stop-color="#4AED52"/>
</linearGradient>
</defs>
</svg>
