<svg width="47" height="47" fill="none" xmlns="http://www.w3.org/2000/svg"><g opacity=".8" filter="url(#filter0_b_1_2919)"><rect x="2" y="2" width="42.71" height="42.71" rx="4" fill="url(#paint0_linear_1_2919)" fill-opacity=".1"/><rect x="1.25" y="1.25" width="44.21" height="44.21" rx="4.75" stroke="url(#paint1_linear_1_2919)" stroke-width="1.5"/></g><g clip-path="url(#clip0_1_2919)"><path d="M30.49 25.462l.806-5.3H26.26v-3.438c0-1.45.702-2.865 2.957-2.865h2.29V9.347s-2.077-.358-4.063-.358c-4.149 0-6.858 2.54-6.858 7.134v4.04h-4.61v5.3h4.61v12.813a18.09 18.09 0 002.837.222c.964 0 1.911-.075 2.837-.222V25.462h4.23z" fill="#fff"/></g><defs><linearGradient id="paint0_linear_1_2919" x1="1.35" y1="34.907" x2="46.567" y2="34.907" gradientUnits="userSpaceOnUse"><stop stop-color="#fff"/><stop offset="1" stop-color="#fff" stop-opacity=".24"/></linearGradient><linearGradient id="paint1_linear_1_2919" x1="2" y1="2" x2="37.305" y2="53.887" gradientUnits="userSpaceOnUse"><stop stop-color="#fff" stop-opacity=".28"/><stop offset="1" stop-color="#fff" stop-opacity="0"/></linearGradient><clipPath id="clip0_1_2919"><path fill="#fff" transform="translate(8.212 8.212)" d="M0 0h31.062v31.062H0z"/></clipPath><filter id="filter0_b_1_2919" x="-49.5" y="-49.5" width="145.71" height="145.71" filterUnits="userSpaceOnUse" color-interpolation-filters="sRGB"><feFlood flood-opacity="0" result="BackgroundImageFix"/><feGaussianBlur in="BackgroundImageFix" stdDeviation="25"/><feComposite in2="SourceAlpha" operator="in" result="effect1_backgroundBlur_1_2919"/><feBlend in="SourceGraphic" in2="effect1_backgroundBlur_1_2919" result="shape"/></filter></defs></svg>