<svg width="80" height="80" fill="none" xmlns="http://www.w3.org/2000/svg"><path d="M69.9 53.6c-.8 8.9-7.233 14.733-16.567 14.733h-30c-9.2 0-16.666-7.466-16.666-16.666V28.333c0-9.066 5.466-15.4 13.966-16.466.867-.134 1.767-.2 2.7-.2h30c.867 0 1.7.033 2.5.166C63.8 12.767 69.2 18.333 69.9 26.4c.1.967-.7 1.767-1.667 1.767h-5.166c-3.2 0-6.167 1.233-8.3 3.433a11.726 11.726 0 00-3.5 9.4c.533 6.067 5.866 10.833 12.2 10.833h4.766c.967 0 1.767.8 1.667 1.767z" fill="#fff"/><path d="M73.333 36.567v6.866c0 1.834-1.466 3.334-3.333 3.4h-6.533c-3.6 0-6.9-2.633-7.2-6.233-.2-2.1.6-4.067 2-5.433 1.233-1.267 2.933-2 4.8-2H70c1.867.066 3.333 1.566 3.333 3.4z" fill="#fff"/></svg>