<svg width="80" height="80" fill="none" xmlns="http://www.w3.org/2000/svg"><path d="M8.6 63.367l-.067.066c-.9-1.966-1.466-4.2-1.7-6.666a20.475 20.475 0 001.767 6.6z" fill="#292D32"/><path d="M30 34.6a7.933 7.933 0 100-15.867A7.933 7.933 0 0030 34.6z" fill="#fff"/><path d="M53.967 6.667H26.033C13.9 6.667 6.667 13.9 6.667 26.033v27.934c0 3.633.633 6.8 1.866 9.466 2.867 6.334 9 9.9 17.5 9.9h27.934c12.133 0 19.366-7.233 19.366-19.366V26.033c0-12.133-7.233-19.366-19.366-19.366zm13.933 35c-2.6-2.234-6.8-2.234-9.4 0l-13.867 11.9c-2.6 2.233-6.8 2.233-9.4 0l-1.133-.934c-2.367-2.066-6.133-2.266-8.8-.466l-12.467 8.366c-.733-1.866-1.166-4.033-1.166-6.566V26.033c0-9.4 4.966-14.366 14.366-14.366h27.934c9.4 0 14.366 4.966 14.366 14.366v16l-.433-.366z" fill="#fff"/></svg>